<?xml version="1.0" ?><svg viewbox="0 0 512 512" width="512" height="512" xmlns="http://www.w3.org/2000/svg"><title/><g data-name="1" id="_1"><path d="M265,194c-30.79,0-60-6.69-82.15-18.83C157.8,161.46,144,142.23,144,121s13.8-40.46,38.85-54.17C205,54.69,234.21,48,265,48s60,6.69,82.15,18.83C372.2,80.54,386,99.77,386,121s-13.8,40.46-38.85,54.17C325,187.31,295.79,194,265,194Zm0-116c-25.47,0-50.16,5.52-67.75,15.15C182.47,101.23,174,111.38,174,121s8.47,19.77,23.25,27.85C214.84,158.48,239.53,164,265,164s50.16-5.52,67.75-15.15C347.53,140.77,356,130.62,356,121s-8.47-19.77-23.25-27.85C315.16,83.52,290.47,78,265,78Z"/><path d="M265,449.26c-30.79,0-60-6.69-82.15-18.83-25-13.7-38.85-32.94-38.85-54.17V121a15,15,0,0,1,30,0V376.26c0,9.62,8.47,19.77,23.25,27.85,17.59,9.63,42.28,15.15,67.75,15.15s50.16-5.52,67.75-15.15C347.53,396,356,385.88,356,376.26V121a15,15,0,0,1,30,0V376.26c0,21.23-13.8,40.47-38.85,54.17C325,442.57,295.79,449.26,265,449.26Z"/><path d="M265,404.37c-30.79,0-60-6.69-82.15-18.83-25-13.71-38.85-33-38.85-54.17a15,15,0,0,1,30,0c0,9.61,8.47,19.77,23.25,27.85,17.59,9.62,42.28,15.15,67.75,15.15s50.16-5.53,67.75-15.15C347.53,351.14,356,341,356,331.37a15,15,0,0,1,30,0c0,21.22-13.8,40.46-38.85,54.17C325,397.68,295.79,404.37,265,404.37Z"/><path d="M265,350.53c-30.79,0-60-6.69-82.15-18.83C157.8,318,144,298.76,144,277.53a15,15,0,0,1,30,0c0,9.62,8.47,19.77,23.25,27.85,17.59,9.63,42.28,15.15,67.75,15.15s50.16-5.52,67.75-15.15C347.53,297.3,356,287.15,356,277.53a15,15,0,0,1,30,0c0,21.23-13.8,40.46-38.85,54.17C325,343.84,295.79,350.53,265,350.53Z"/><path d="M265,296.69c-30.79,0-60-6.68-82.15-18.83-25-13.7-38.85-32.94-38.85-54.17a15,15,0,0,1,30,0c0,9.62,8.47,19.77,23.25,27.86,17.59,9.62,42.28,15.14,67.75,15.14s50.16-5.52,67.75-15.14c14.78-8.09,23.25-18.24,23.25-27.86a15,15,0,0,1,30,0c0,21.23-13.8,40.47-38.85,54.17C325,290,295.79,296.69,265,296.69Z"/><path d="M265,242.86c-30.79,0-60-6.69-82.15-18.83-25-13.71-38.85-32.95-38.85-54.17a15,15,0,0,1,30,0c0,9.62,8.47,19.77,23.25,27.85,17.59,9.63,42.28,15.15,67.75,15.15s50.16-5.52,67.75-15.15c14.78-8.08,23.25-18.23,23.25-27.85a15,15,0,0,1,30,0c0,21.22-13.8,40.46-38.85,54.17C325,236.17,295.79,242.86,265,242.86Z"/></g></svg>
