<?xml version="1.0" encoding="utf-8"?>
<!-- Generator: Adobe Illustrator 23.0.2, SVG Export Plug-In . SVG Version: 6.00 Build 0)  -->
<svg version="1.1"
	 id="Шар_1" xmlns:cc="http://creativecommons.org/ns#" xmlns:dc="http://purl.org/dc/elements/1.1/" xmlns:rdf="http://www.w3.org/1999/02/22-rdf-syntax-ns#"
	 xmlns="http://www.w3.org/2000/svg" xmlns:xlink="http://www.w3.org/1999/xlink" x="0px" y="0px" viewBox="0 0 24 19.9"
	 style="enable-background:new 0 0 24 19.9;" xml:space="preserve">
<style type="text/css">
	.st0{fill:url(#SVGID_1_);}
	.st1{fill:url(#SVGID_2_);}
</style>
<g transform="translate(0 -1028.4)">
	
		<linearGradient id="SVGID_1_" gradientUnits="userSpaceOnUse" x1="-280.7918" y1="1412.2643" x2="-279.7918" y2="1412.2643" gradientTransform="matrix(24.0002 0 0 -17 6739.0586 25048.2852)">
		<stop  offset="0" style="stop-color:#00AEEF"/>
		<stop  offset="1" style="stop-color:#9655C7"/>
	</linearGradient>
	<path class="st0" d="M9.5,1031.3c-3.6,0-6.5,2.9-6.5,6.5c0,0,0,0,0,0.1c-1.8,0.9-3,2.7-3,4.9c0,3,2.5,5.5,5.5,5.5h0h13.2H19
		c2.8,0,5-2.3,5-5c0-2.1-1.3-3.9-3.1-4.7c0.1-0.2,0.1-0.5,0.1-0.8c0-2-1.6-3.5-3.5-3.5c-0.8,0-1.5,0.2-2.1,0.7
		C14.3,1032.8,12.1,1031.3,9.5,1031.3L9.5,1031.3z"/>
	
		<linearGradient id="SVGID_2_" gradientUnits="userSpaceOnUse" x1="-280.7918" y1="1412.2643" x2="-279.7918" y2="1412.2643" gradientTransform="matrix(24.0002 0 0 -17 6739.0586 25047.2852)">
		<stop  offset="0" style="stop-color:#00AEEF"/>
		<stop  offset="1" style="stop-color:#9655C7"/>
	</linearGradient>
	<path class="st1" d="M9.5,1030.3c-3.6,0-6.5,2.9-6.5,6.5c0,0,0,0,0,0.1c-1.8,0.9-3,2.7-3,4.9c0,3,2.5,5.5,5.5,5.5h0h13.2H19
		c2.8,0,5-2.3,5-5c0-2.1-1.3-3.9-3.1-4.7c0.1-0.2,0.1-0.5,0.1-0.8c0-2-1.6-3.5-3.5-3.5c-0.8,0-1.5,0.2-2.1,0.7
		C14.3,1031.8,12.1,1030.3,9.5,1030.3L9.5,1030.3z"/>
</g>
</svg>
