<?xml version="1.0" ?><svg height="30" viewbox="0 0 31 30" width="31" xmlns="http://www.w3.org/2000/svg" fill="url(#linear-gradient)">
<linearGradient id="linear-gradient">
<stop offset="0%" stop-color="#00aeef"/>
<stop offset="100%" stop-color="#9655c7"/>
</linearGradient>
<g transform="translate(-289.255 -642.787)"><path d="M317.868,644.787a.942.942,0,0,1,.942.942v18.357a.943.943,0,0,1-.942.942H292.2a.943.943,0,0,1-.942-.942V645.729a.942.942,0,0,1,.942-.942h25.671m0-2H292.2a2.942,2.942,0,0,0-2.942,2.942v18.357a2.942,2.942,0,0,0,2.942,2.942h25.671a2.942,2.942,0,0,0,2.942-2.942V645.729a2.942,2.942,0,0,0-2.942-2.942Z"/><rect height="6.5" transform="translate(304.033 665.834)" width="2"/><path d="M312.457,673.334H298.873a1,1,0,1,1,0-2h13.584a1,1,0,0,1,0,2Z"/> </g></svg>
